<svg width="147" height="56" viewBox="0 0 147 56" fill="none" xmlns="http://www.w3.org/2000/svg">
<path d="M20.2435 15.3424H15.2547V40.6151H20.2435V23.2856L35.4067 40.6151H40.461V20.5943H49.5852C55.7555 32.9344 41.5112 57.7762 20.2435 49.4767C6.78674 44.2254 0.368574 28.4057 8.82164 15.3424C16.5519 3.39619 33.1091 1.88643 42.2989 10.4193H49.3882C37.4414 -4.02146 14.2699 -4.41523 2.97966 15.3424C-8.13758 40.4149 14.4092 56.7321 28.6456 55.9747C48.1792 54.9354 62.1885 34.7068 52.933 15.3424H35.4067V32.9344L20.2435 15.3424Z" fill="black"/>
<mask id="mask0_521_11349" style="mask-type:alpha" maskUnits="userSpaceOnUse" x="0" y="0" width="56" height="56">
<path d="M20.2435 15.3424H15.2547V40.6151H20.2435V23.2856L35.4067 40.6151H40.461V20.5943H49.5852C55.7555 32.9344 41.5112 57.7762 20.2435 49.4767C6.78674 44.2254 0.368574 28.4057 8.82164 15.3424C16.5519 3.39619 33.1091 1.88643 42.2989 10.4193H49.3882C37.4414 -4.02146 14.2699 -4.41523 2.97966 15.3424C-8.13758 40.4149 14.4092 56.7321 28.6456 55.9747C48.1792 54.9354 62.1885 34.7068 52.933 15.3424H35.4067V32.9344L20.2435 15.3424Z" fill="white"/>
<path d="M20.2435 15.3424H15.2547V40.6151H20.2435V23.2856L35.4067 40.6151H40.461V20.5943H49.5852C55.7555 32.9344 41.5112 57.7762 20.2435 49.4767C6.78674 44.2254 0.368574 28.4057 8.82164 15.3424C16.5519 3.39619 33.1091 1.88643 42.2989 10.4193H49.3882C37.4414 -4.02146 14.2699 -4.41523 2.97966 15.3424C-8.13758 40.4149 14.4092 56.7321 28.6456 55.9747C48.1792 54.9354 62.1885 34.7068 52.933 15.3424H35.4067V32.9344L20.2435 15.3424Z" fill="url(#paint0_linear_521_11349)"/>
</mask>
<g mask="url(#mask0_521_11349)">
<line x1="1.29231" y1="-1.29231" x2="66.8571" y2="-1.29231" transform="matrix(0.365979 -0.930623 0.962876 0.269944 -6.24414 54.832)" stroke="black" stroke-width="2.58462" stroke-linecap="round" stroke-dasharray="0.22 0.22"/>
<line x1="1.29231" y1="-1.29231" x2="66.8571" y2="-1.29231" transform="matrix(0.365979 -0.930623 0.962876 0.269944 -3.4248 55.2012)" stroke="black" stroke-width="2.58462" stroke-linecap="round" stroke-dasharray="0.22 0.22"/>
<line x1="1.29231" y1="-1.29231" x2="66.8571" y2="-1.29231" transform="matrix(0.365979 -0.930623 0.962876 0.269944 -0.605469 55.5713)" stroke="black" stroke-width="2.58462" stroke-linecap="round" stroke-dasharray="0.22 0.22"/>
<line x1="1.29231" y1="-1.29231" x2="66.8571" y2="-1.29231" transform="matrix(0.365979 -0.930623 0.962876 0.269944 2.21484 55.9404)" stroke="black" stroke-width="2.58462" stroke-linecap="round" stroke-dasharray="0.22 0.22"/>
<line x1="1.29231" y1="-1.29231" x2="66.8571" y2="-1.29231" transform="matrix(0.365979 -0.930623 0.962876 0.269944 5.03418 56.3096)" stroke="black" stroke-width="2.58462" stroke-linecap="round" stroke-dasharray="0.22 0.22"/>
<line x1="1.29231" y1="-1.29231" x2="66.8571" y2="-1.29231" transform="matrix(0.365979 -0.930623 0.962876 0.269944 7.85352 56.6797)" stroke="black" stroke-width="2.58462" stroke-linecap="round" stroke-dasharray="0.22 0.22"/>
<line x1="1.29231" y1="-1.29231" x2="66.8571" y2="-1.29231" transform="matrix(0.365979 -0.930623 0.962876 0.269944 10.6729 57.0498)" stroke="black" stroke-width="2.58462" stroke-linecap="round" stroke-dasharray="0.22 0.22"/>
<line x1="1.29231" y1="-1.29231" x2="66.8571" y2="-1.29231" transform="matrix(0.365979 -0.930623 0.962876 0.269944 13.4932 57.4189)" stroke="black" stroke-width="2.58462" stroke-linecap="round" stroke-dasharray="0.22 0.22"/>
<line x1="1.29231" y1="-1.29231" x2="66.8571" y2="-1.29231" transform="matrix(0.365979 -0.930623 0.962876 0.269944 16.3125 57.7881)" stroke="black" stroke-width="2.58462" stroke-linecap="round" stroke-dasharray="0.22 0.22"/>
<line x1="1.29231" y1="-1.29231" x2="66.8571" y2="-1.29231" transform="matrix(0.365979 -0.930623 0.962876 0.269944 19.1318 58.1572)" stroke="black" stroke-width="2.58462" stroke-linecap="round" stroke-dasharray="0.22 0.22"/>
<line x1="1.29231" y1="-1.29231" x2="66.8571" y2="-1.29231" transform="matrix(0.365979 -0.930623 0.962876 0.269944 21.9521 58.5273)" stroke="black" stroke-width="2.58462" stroke-linecap="round" stroke-dasharray="0.22 0.22"/>
<line x1="1.29231" y1="-1.29231" x2="66.8571" y2="-1.29231" transform="matrix(0.365979 -0.930623 0.962876 0.269944 24.7715 58.8965)" stroke="black" stroke-width="2.58462" stroke-linecap="round" stroke-dasharray="0.22 0.22"/>
<line x1="1.29231" y1="-1.29231" x2="66.8571" y2="-1.29231" transform="matrix(0.365979 -0.930623 0.962876 0.269944 27.5908 59.2666)" stroke="black" stroke-width="2.58462" stroke-linecap="round" stroke-dasharray="0.22 0.22"/>
<line x1="1.29231" y1="-1.29231" x2="66.8571" y2="-1.29231" transform="matrix(0.365979 -0.930623 0.962876 0.269944 30.4102 59.6357)" stroke="black" stroke-width="2.58462" stroke-linecap="round" stroke-dasharray="0.22 0.22"/>
<line x1="1.29231" y1="-1.29231" x2="66.8571" y2="-1.29231" transform="matrix(0.365979 -0.930623 0.962876 0.269944 33.2295 60.0059)" stroke="black" stroke-width="2.58462" stroke-linecap="round" stroke-dasharray="0.22 0.22"/>
<line x1="1.29231" y1="-1.29231" x2="66.8571" y2="-1.29231" transform="matrix(0.365979 -0.930623 0.962876 0.269944 36.0498 60.375)" stroke="black" stroke-width="2.58462" stroke-linecap="round" stroke-dasharray="0.22 0.22"/>
<line x1="1.29231" y1="-1.29231" x2="66.8571" y2="-1.29231" transform="matrix(0.365979 -0.930623 0.962876 0.269944 38.8691 60.7441)" stroke="black" stroke-width="2.58462" stroke-linecap="round" stroke-dasharray="0.22 0.22"/>
<line x1="1.29231" y1="-1.29231" x2="66.8571" y2="-1.29231" transform="matrix(0.365979 -0.930623 0.962876 0.269944 41.6895 61.1143)" stroke="black" stroke-width="2.58462" stroke-linecap="round" stroke-dasharray="0.22 0.22"/>
<line x1="1.29231" y1="-1.29231" x2="66.8571" y2="-1.29231" transform="matrix(0.365979 -0.930623 0.962876 0.269944 44.5088 61.4834)" stroke="black" stroke-width="2.58462" stroke-linecap="round" stroke-dasharray="0.22 0.22"/>
<line x1="1.29231" y1="-1.29231" x2="66.8571" y2="-1.29231" transform="matrix(0.365979 -0.930623 0.962876 0.269944 -9.06445 54.4629)" stroke="black" stroke-width="2.58462" stroke-linecap="round" stroke-dasharray="0.22 0.22"/>
<line x1="1.29231" y1="-1.29231" x2="66.8571" y2="-1.29231" transform="matrix(0.365979 -0.930623 0.962876 0.269944 -11.8838 54.0928)" stroke="black" stroke-width="2.58462" stroke-linecap="round" stroke-dasharray="0.22 0.22"/>
<line x1="1.29231" y1="-1.29231" x2="66.8571" y2="-1.29231" transform="matrix(0.365979 -0.930623 0.962876 0.269944 -14.7031 53.7236)" stroke="black" stroke-width="2.58462" stroke-linecap="round" stroke-dasharray="0.22 0.22"/>
<line x1="1.29231" y1="-1.29231" x2="66.8571" y2="-1.29231" transform="matrix(0.365979 -0.930623 0.962876 0.269944 -17.5234 53.3535)" stroke="black" stroke-width="2.58462" stroke-linecap="round" stroke-dasharray="0.22 0.22"/>
<line x1="1.29231" y1="-1.29231" x2="66.8571" y2="-1.29231" transform="matrix(0.365979 -0.930623 0.962876 0.269944 -20.3428 52.9844)" stroke="black" stroke-width="2.58462" stroke-linecap="round" stroke-dasharray="0.22 0.22"/>
</g>
<path d="M63.6393 27V7.70154H66.5892L78.6921 22.5614H77.2309V7.70154H80.7873V27H77.8374L65.7345 12.1402H67.1957V27H63.6393ZM88.164 15.7242H97.7581V18.6741H88.164V15.7242ZM88.4397 23.995H99.3296V27H84.8557V7.70154H98.9436V10.7066H88.4397V23.995ZM106.502 27L100.106 7.70154H103.828L109.535 25.1529H107.687L113.615 7.70154H116.923L122.685 25.1529H120.893L126.738 7.70154H130.156L123.76 27H119.956L114.69 11.258H115.682L110.334 27H106.502ZM137.956 27.2757C136.449 27.2757 135.006 27.0643 133.627 26.6416C132.249 26.2005 131.155 25.6399 130.347 24.9599L131.587 22.1754C132.359 22.7819 133.315 23.2873 134.455 23.6917C135.594 24.096 136.761 24.2982 137.956 24.2982C138.967 24.2982 139.785 24.1879 140.409 23.9674C141.034 23.7468 141.494 23.4528 141.788 23.0852C142.082 22.6992 142.229 22.2673 142.229 21.7894C142.229 21.2013 142.018 20.7326 141.595 20.3834C141.172 20.0158 140.621 19.7309 139.941 19.5287C139.279 19.3082 138.535 19.106 137.708 18.9222C136.899 18.7384 136.081 18.5271 135.254 18.2881C134.445 18.0308 133.701 17.7092 133.021 17.3232C132.359 16.9189 131.817 16.3858 131.394 15.7242C130.972 15.0625 130.76 14.2171 130.76 13.1878C130.76 12.1402 131.036 11.1845 131.587 10.3206C132.157 9.4384 133.012 8.73998 134.151 8.22535C135.309 7.69235 136.77 7.42584 138.535 7.42584C139.693 7.42584 140.841 7.57288 141.981 7.86695C143.12 8.16102 144.113 8.58375 144.958 9.13514L143.828 11.9196C142.964 11.405 142.073 11.0282 141.154 10.7893C140.235 10.532 139.353 10.4033 138.507 10.4033C137.515 10.4033 136.706 10.5228 136.081 10.7617C135.475 11.0007 135.024 11.3131 134.73 11.6991C134.455 12.085 134.317 12.5262 134.317 13.0224C134.317 13.6105 134.519 14.0884 134.923 14.456C135.346 14.8052 135.888 15.0809 136.55 15.2831C137.23 15.4853 137.983 15.6874 138.81 15.8896C139.638 16.0734 140.455 16.2848 141.264 16.5237C142.091 16.7626 142.836 17.0751 143.497 17.461C144.177 17.847 144.719 18.3708 145.124 19.0325C145.547 19.6942 145.758 20.5304 145.758 21.5413C145.758 22.5705 145.473 23.5263 144.903 24.4085C144.352 25.2723 143.497 25.9707 142.339 26.5038C141.181 27.0184 139.72 27.2757 137.956 27.2757Z" fill="black"/>
<path d="M72.9764 53.3372C71.4693 53.3372 70.0816 53.0983 68.8135 52.6204C67.5637 52.1242 66.4701 51.4349 65.5327 50.5527C64.5954 49.6521 63.8694 48.5953 63.3548 47.3823C62.8401 46.1692 62.5828 44.8459 62.5828 43.4123C62.5828 41.9787 62.8401 40.6554 63.3548 39.4423C63.8694 38.2293 64.5954 37.1816 65.5327 36.2994C66.4885 35.3988 67.6004 34.7096 68.8686 34.2317C70.1368 33.7355 71.5244 33.4874 73.0316 33.4874C74.6673 33.4874 76.1377 33.7539 77.4426 34.2869C78.766 34.8199 79.8779 35.601 80.7785 36.6303L78.5178 38.8358C77.7643 38.0822 76.9464 37.5309 76.0642 37.1816C75.2003 36.8141 74.2446 36.6303 73.197 36.6303C72.1861 36.6303 71.2487 36.7957 70.3849 37.1265C69.5211 37.4573 68.7767 37.926 68.1518 38.5325C67.5269 39.1391 67.0398 39.8559 66.6906 40.6829C66.3598 41.51 66.1944 42.4198 66.1944 43.4123C66.1944 44.3864 66.3598 45.287 66.6906 46.1141C67.0398 46.9412 67.5269 47.6671 68.1518 48.292C68.7767 48.8986 69.5119 49.3672 70.3573 49.6981C71.2028 50.0289 72.1401 50.1943 73.1694 50.1943C74.1251 50.1943 75.0441 50.0473 75.9263 49.7532C76.8269 49.4408 77.6816 48.9261 78.4903 48.2093L80.5304 50.8836C79.5195 51.6923 78.3432 52.308 77.0015 52.7307C75.6782 53.135 74.3365 53.3372 72.9764 53.3372ZM77.1394 50.4149V43.1917H80.5304V50.8836L77.1394 50.4149ZM99.5934 41.7857H109.188V44.7356H99.5934V41.7857ZM99.8691 50.0565H110.759V53.0615H96.2851V33.7631H110.373V36.7681H99.8691V50.0565ZM134.825 53.3372C133.318 53.3372 131.93 53.0891 130.662 52.5928C129.394 52.0966 128.291 51.4074 127.353 50.5252C126.416 49.6246 125.69 48.5769 125.176 47.3823C124.661 46.1692 124.404 44.8459 124.404 43.4123C124.404 41.9787 124.661 40.6646 125.176 39.4699C125.69 38.2568 126.416 37.2092 127.353 36.327C128.291 35.4264 129.394 34.728 130.662 34.2317C131.93 33.7355 133.308 33.4874 134.797 33.4874C136.304 33.4874 137.683 33.7355 138.933 34.2317C140.201 34.728 141.304 35.4264 142.241 36.327C143.178 37.2092 143.904 38.2568 144.419 39.4699C144.933 40.6646 145.191 41.9787 145.191 43.4123C145.191 44.8459 144.933 46.1692 144.419 47.3823C143.904 48.5953 143.178 49.6429 142.241 50.5252C141.304 51.4074 140.201 52.0966 138.933 52.5928C137.683 53.0891 136.313 53.3372 134.825 53.3372ZM134.797 50.1943C135.771 50.1943 136.672 50.0289 137.499 49.6981C138.326 49.3672 139.043 48.8986 139.649 48.292C140.256 47.6671 140.725 46.9503 141.055 46.1416C141.405 45.3146 141.579 44.4048 141.579 43.4123C141.579 42.4198 141.405 41.5192 141.055 40.7105C140.725 39.8834 140.256 39.1666 139.649 38.5601C139.043 37.9352 138.326 37.4573 137.499 37.1265C136.672 36.7957 135.771 36.6303 134.797 36.6303C133.823 36.6303 132.922 36.7957 132.095 37.1265C131.287 37.4573 130.57 37.9352 129.945 38.5601C129.338 39.1666 128.861 39.8834 128.511 40.7105C128.181 41.5192 128.015 42.4198 128.015 43.4123C128.015 44.3864 128.181 45.287 128.511 46.1141C128.861 46.9412 129.338 47.6671 129.945 48.292C130.552 48.8986 131.268 49.3672 132.095 49.6981C132.922 50.0289 133.823 50.1943 134.797 50.1943Z" fill="black"/>
<defs>
<linearGradient id="paint0_linear_521_11349" x1="34.4615" y1="31.7692" x2="42.3231" y2="50.7231" gradientUnits="userSpaceOnUse">
<stop stop-color="white"/>
<stop offset="1" stop-color="#989696"/>
</linearGradient>
</defs>
</svg>
