<svg width="65" height="64" viewBox="0 0 65 64" fill="none" xmlns="http://www.w3.org/2000/svg">
<g clip-path="url(#clip0_649_11359)">
<path d="M31.1286 14.9301L45.1444 0.930132C45.4743 0.599004 45.8718 0.342959 46.3097 0.179476C46.7551 0.0202498 47.2297 -0.0406383 47.7008 0.00099845C48.4333 0.0698665 49.1186 0.39302 49.6378 0.914384L63.5748 14.8514C63.8759 15.1507 64.1134 15.5078 64.273 15.9013C64.5051 16.4825 64.5628 17.1189 64.4388 17.7324C64.3147 18.3459 64.0145 18.9099 63.5748 19.3553L49.5801 33.3763C49.2934 33.6604 48.9548 33.8867 48.5827 34.043C48.2116 34.2064 47.8122 34.2955 47.4068 34.3055C46.9742 34.3163 46.5439 34.2396 46.1418 34.0797C45.7366 33.9254 45.3696 33.6855 45.0656 33.3763L31.1286 19.4236C30.5855 18.878 30.2574 18.1548 30.2047 17.3868V17.2188C30.2015 16.795 30.2819 16.3747 30.4414 15.982C30.6008 15.5892 30.8361 15.2318 31.1339 14.9301H31.1286Z" fill="#8F00FF"/>
<path fill-rule="evenodd" clip-rule="evenodd" d="M36.6142 64.001H58.0893C58.6033 64.0013 59.1109 63.8865 59.5748 63.6651C60.0358 63.4426 60.4426 63.1218 60.7664 62.7254C61.2722 62.1077 61.5502 61.3348 61.5538 60.5364V39.1506C61.5529 38.6868 61.4583 38.2279 61.2756 37.8015C60.9135 36.9548 60.23 36.2864 59.3753 35.9433C58.9667 35.7777 58.5301 35.6922 58.0893 35.6913H36.6142C35.7283 35.7006 34.878 36.0415 34.231 36.6467C33.8915 36.9721 33.6218 37.3633 33.4383 37.7963C33.2469 38.2239 33.1485 38.6873 33.1496 39.1559V60.5417C33.1504 60.958 33.2269 61.3706 33.3754 61.7595C33.5225 62.1435 33.7357 62.4988 34.0053 62.8094L34.1418 62.9511C34.4455 63.2549 34.8011 63.5019 35.1916 63.6808C35.6419 63.8852 36.1302 63.9925 36.6247 63.9958L36.6142 64.001ZM36.6142 60.5522H58.0945H58.1365V39.1506H36.6142V60.5522Z" fill="#FFD600"/>
<path fill-rule="evenodd" clip-rule="evenodd" d="M3.46459 31.3081H24.9397C25.4527 31.3083 25.9594 31.1939 26.4226 30.9732C26.8858 30.7525 27.2938 30.4311 27.6168 30.0325C27.8719 29.72 28.0693 29.3645 28.1995 28.9826C28.3336 28.6105 28.4028 28.2181 28.4042 27.8225V6.46294C28.4033 5.99741 28.3087 5.53682 28.126 5.10861C27.7688 4.26586 27.0935 3.59809 26.2467 3.25034C25.8381 3.0848 25.4015 2.99926 24.9606 2.99837H3.46459C3.02717 2.99982 2.59411 3.08537 2.189 3.25034C1.7774 3.41023 1.40111 3.6492 1.08139 3.95376C0.742469 4.27765 0.472809 4.66696 0.288737 5.09811C0.0967011 5.5274 -0.00171937 5.99266 2.27293e-05 6.46294V27.8488C0.000739944 28.2633 0.0772379 28.6743 0.225745 29.0614C0.371727 29.4459 0.585031 29.8015 0.855666 30.1112L0.992149 30.253C1.29593 30.5567 1.65145 30.8038 2.04202 30.9826C2.4923 31.1871 2.98058 31.2944 3.47509 31.2976L3.46459 31.3081ZM3.46459 27.8593H24.9449L24.9869 27.8488V6.44719H3.46459V27.8593Z" fill="#FF3333"/>
<path fill-rule="evenodd" clip-rule="evenodd" d="M3.46459 64.001H24.9397C25.4537 64.0013 25.9613 63.8865 26.4252 63.6651C26.8862 63.4426 27.293 63.1218 27.6168 62.7254C28.1226 62.1077 28.4006 61.3348 28.4042 60.5364V39.1506C28.404 38.685 28.3094 38.2243 28.126 37.7963C27.7676 36.9555 27.0925 36.2898 26.2467 35.9433C25.8312 35.7769 25.3872 35.6931 24.9397 35.6965H3.46459C3.02717 35.698 2.59411 35.7835 2.189 35.9485C1.7774 36.1084 1.40111 36.3474 1.08139 36.6519C0.742469 36.9758 0.472809 37.3651 0.288737 37.7963C0.0980024 38.2223 -0.000392265 38.6839 2.27293e-05 39.1506V60.5364C0.000805884 60.9527 0.077291 61.3654 0.225745 61.7543C0.372917 62.1383 0.586101 62.4936 0.855666 62.8042L0.992149 62.9459C1.29593 63.2496 1.65145 63.4967 2.04202 63.6755C2.4923 63.88 2.98058 63.9873 3.47509 63.9905L3.46459 64.001ZM3.46459 60.5522H24.9449L24.9869 60.5417V39.1401H3.46459V60.5522Z" fill="#00B086"/>
</g>
<defs>
<clipPath id="clip0_649_11359">
<rect width="64.5039" height="64" fill="white"/>
</clipPath>
</defs>
</svg>
