<svg width="66" height="64" viewBox="0 0 66 64" fill="none" xmlns="http://www.w3.org/2000/svg">
<g clip-path="url(#clip0_653_11286)">
<path d="M19.2475 28.8969H25.297C25.6811 28.8969 25.9958 29.2117 25.9958 29.5958V34.0662C25.9958 34.4503 25.6811 34.765 25.297 34.765H19.2475C18.8634 34.765 18.5486 34.4503 18.5486 34.0662V29.5958C18.5486 29.2117 18.8634 28.8969 19.2475 28.8969Z" fill="#8F00FF"/>
<path d="M7.66592 28.8969H13.7154C14.0995 28.8969 14.4143 29.2117 14.4143 29.5958V34.0662C14.4143 34.4503 14.0995 34.765 13.7154 34.765H7.66592C7.28182 34.765 6.96708 34.4503 6.96708 34.0662V29.5958C6.96708 29.2117 7.28182 28.8969 7.66592 28.8969Z" fill="#FF3333"/>
<path d="M19.2475 41.6361H25.297C25.6811 41.6361 25.9958 41.9508 25.9958 42.3349V46.8054C25.9958 47.1895 25.6811 47.5042 25.297 47.5042H19.2475C18.8634 47.5042 18.5486 47.1895 18.5486 46.8054V42.3349C18.5486 41.9455 18.8634 41.6361 19.2475 41.6361Z" fill="#FFD600"/>
<path d="M7.66592 41.6361H13.7154C14.0995 41.6361 14.4143 41.9508 14.4143 42.3349V46.8054C14.4143 47.1895 14.0995 47.5042 13.7154 47.5042H7.66592C7.28182 47.5042 6.96708 47.1895 6.96708 46.8054V42.3349C6.96708 41.9455 7.28182 41.6361 7.66592 41.6361Z" fill="#00B086"/>
<path d="M30.829 28.8969H36.8786C37.0653 28.8969 37.2306 28.9716 37.3587 29.089C34.9847 30.572 32.9256 32.5032 31.2932 34.7704H30.829C30.4449 34.7704 30.1302 34.4556 30.1302 34.0715V29.6011C30.1302 29.2117 30.4449 28.8969 30.829 28.8969Z" fill="#00BFFF"/>
<path d="M46.2196 46.7947C46.4276 46.5653 46.6837 46.3679 46.9611 46.2186V38.9314C46.9611 38.1899 47.5639 37.5871 48.3054 37.5871C49.0469 37.5871 49.6551 38.1899 49.6551 38.9314V46.2186C50.1459 46.4853 50.5513 46.8854 50.8127 47.3762H56.0193C56.7662 47.3762 57.3637 47.979 57.3637 48.7205C57.3637 49.4621 56.7609 50.0649 56.0193 50.0649H50.8127C50.3326 50.9611 49.3937 51.5692 48.3054 51.5692C47.4519 51.5692 46.689 51.1905 46.1662 50.5983C45.2006 49.4941 45.2486 47.8457 46.2196 46.7947Z" fill="#8D8D8D"/>
<path d="M13.5127 2.1649C13.5127 0.975267 14.6863 -0.000976562 16.1534 -0.000976562C17.6151 -0.000976562 18.794 0.964598 18.794 2.1649V11.6286C18.794 12.8182 17.6151 13.7945 16.1534 13.7945C14.6917 13.7945 13.5127 12.8289 13.5127 11.6286V2.1649Z" fill="#8D8D8D"/>
<path fill-rule="evenodd" clip-rule="evenodd" d="M55.2085 31.7616C61.4554 34.3489 65.5524 40.4465 65.5524 47.2428C65.5524 51.868 63.6746 56.061 60.6445 59.0911C57.6144 62.1212 53.4267 63.999 48.7962 63.999C44.171 63.999 39.9833 62.1212 36.9479 59.0911C33.9178 56.0557 32.04 51.868 32.04 47.2428C32.04 40.4998 36.2331 34.2102 42.4693 31.6496C46.3369 30.0705 51.3675 30.1666 55.2085 31.7616ZM58.7454 37.5604C51.805 30.62 40.1007 32.5832 36.041 41.3214C35.2088 43.1191 34.7394 45.125 34.7394 47.2375C34.7394 51.1211 36.3131 54.6367 38.8577 57.1813C41.4024 59.726 44.9179 61.2997 48.8015 61.2997C52.6852 61.2997 56.2007 59.7206 58.7454 57.1813C61.29 54.6367 62.8637 51.1211 62.8637 47.2375C62.8637 45.0343 62.3569 42.9484 61.4554 41.092C60.7672 39.6889 59.8496 38.6647 58.7454 37.5604ZM53.1653 20.6922H2.93407V9.79881C2.93407 9.44138 3.08344 9.09997 3.3235 8.85991C3.56356 8.61985 3.88897 8.47047 4.2624 8.47047H9.40502C10.2106 8.47047 10.8667 7.81431 10.8667 7.00878C10.8667 6.20324 10.2106 5.54708 9.40502 5.54708H4.2624C3.08344 5.54708 2.02184 6.02186 1.24831 6.79539C0.474785 7.57425 0 8.63585 0 9.80948V51.8573C0 53.0363 0.474785 54.0925 1.24831 54.8714C2.02184 55.6449 3.08877 56.1197 4.2624 56.1197H29.1433C28.7325 55.1701 28.3911 54.1779 28.119 53.1643H4.23573C3.8783 53.1643 3.53688 53.0149 3.29682 52.7749C3.05676 52.5348 2.90739 52.2094 2.90739 51.836V23.6103H53.1333V26.3149C54.1522 26.5123 55.1391 26.7791 56.0994 27.1098V9.80948C56.0994 8.63051 55.6246 7.56892 54.8511 6.79539C54.0775 6.02186 53.0159 5.54708 51.837 5.54708H47.0198C46.2142 5.54708 45.5581 6.20324 45.5581 7.00878C45.5581 7.81431 46.2142 8.47047 47.0198 8.47047H51.837C52.1944 8.47047 52.5358 8.61985 52.7759 8.85991C53.0159 9.09997 53.1653 9.42538 53.1653 9.79881V20.6922ZM23.0084 8.46514C22.2029 8.46514 21.5467 7.80898 21.5467 7.00344C21.5467 6.19791 22.2029 5.54174 23.0084 5.54174H32.8189C33.6244 5.54174 34.2806 6.19791 34.2806 7.00344C34.2806 7.80898 33.6244 8.46514 32.8189 8.46514H23.0084Z" fill="black"/>
<path d="M37.2146 2.1649C37.2146 0.975267 38.3883 -0.000976562 39.8553 -0.000976562C41.3223 -0.000976562 42.496 0.964598 42.496 2.1649V11.6286C42.496 12.8182 41.3223 13.7945 39.8553 13.7945C38.3883 13.7945 37.2146 12.8289 37.2146 11.6286V2.1649Z" fill="#8D8D8D"/>
</g>
<defs>
<clipPath id="clip0_653_11286">
<rect width="65.5524" height="64" fill="white"/>
</clipPath>
</defs>
</svg>
