<svg width="65" height="72" viewBox="0 0 65 72" fill="none" xmlns="http://www.w3.org/2000/svg">
<g clip-path="url(#clip0_649_11365)">
<path fill-rule="evenodd" clip-rule="evenodd" d="M42.7754 18.6494C47.392 20.5247 51.4193 23.6069 54.4355 27.5732C53.6199 27.9434 52.8525 28.4117 52.1504 28.9678C51.8159 29.2511 51.5008 29.5565 51.207 29.8818L51.0371 30.0518C50.6907 30.435 50.3771 30.8466 50.0996 31.2822C49.4344 32.3407 48.9826 33.5191 48.7695 34.751C48.5556 35.9997 48.5556 37.2757 48.7695 38.5244C48.9737 39.7855 49.3523 41.0121 49.8945 42.1689C50.4515 43.3652 51.1498 44.4905 51.9746 45.5205C52.6167 46.3274 53.3263 47.0782 54.0957 47.7646C54.8774 48.454 55.712 49.0809 56.5918 49.6397C57.0768 49.9502 57.639 50.1187 58.2148 50.126H58.3672C58.7719 50.1155 59.1704 50.0238 59.5391 49.8564C58.4776 55.0679 55.9375 59.8633 52.2226 63.6692C48.5077 67.4752 43.7752 70.1305 38.591 71.3178C33.4068 72.5051 27.9903 72.174 22.9893 70.3642C17.9882 68.5543 13.6143 65.3424 10.3906 61.1123C12.1643 59.8933 13.706 58.3674 14.9434 56.6064C16.3677 54.6065 17.365 52.3348 17.873 49.9326C18.2056 48.3751 18.2749 46.7728 18.0781 45.1924C17.889 43.72 17.409 42.2999 16.666 41.0146L16.5488 40.8096C16.3003 40.3979 16.0201 40.0061 15.7109 39.6377C15.4622 39.3317 15.1941 39.0421 14.9082 38.7705L14.7207 38.5889C13.793 37.7343 12.722 37.05 11.5566 36.5674C10.3948 36.0888 9.1511 35.8401 7.89453 35.835C7.25013 35.8279 6.60654 35.8829 5.97266 35.999C7.92299 29.8295 11.9662 24.5346 17.4043 21.0283C18.1522 22.4209 19.0249 23.7427 20.0117 24.9775C21.0097 26.2408 22.1133 27.4169 23.3105 28.4932C24.5242 29.573 25.8234 30.5528 27.1953 31.4229C27.9788 31.9177 28.888 32.1769 29.8146 32.1696C30.7412 32.1624 31.6463 31.8889 32.4219 31.3818C35.29 29.5982 37.7691 27.2547 39.7109 24.4912C40.9843 22.6796 42.0164 20.7099 42.7813 18.6318L42.7754 18.6494Z" fill="#8D8D8D"/>
<path fill-rule="evenodd" clip-rule="evenodd" d="M56.6328 52.4414C56.5684 52.6406 56.4981 52.8457 56.4277 53.0273H56.2051V52.4414H56.6328ZM42.084 20.3555C46.2596 22.1569 49.8945 25.0142 52.6309 28.6465C52.4844 28.7461 52.3379 28.8574 52.1973 28.9687C51.8467 29.2505 51.5159 29.5559 51.207 29.8828L51.0371 30.0527C50.6907 30.4359 50.3771 30.8475 50.0996 31.2832C49.4344 32.3417 48.9826 33.5201 48.7695 34.752C48.5556 36.0007 48.5556 37.2767 48.7695 38.5254C48.9737 39.7865 49.3523 41.0131 49.8945 42.1699C49.9824 42.3574 50.0703 42.5391 50.1641 42.7207L49.502 43.4062L49.4609 45.75L48.4531 46.4297L47.3867 40.3711L46.7422 40.8398L45.2949 38.8828L43.1211 38.9473L42.2949 37.998L41.4453 38.2324L39.7695 36.3281L39.4473 36.5449L40.4844 39.1934H41.6562V38.6074H42.2422C42.6758 39.7793 43.1387 39.0938 43.1387 39.8086C43.1387 42.3105 40.0508 44.1445 38.0293 44.6133C38.1406 45.0703 38.0996 45.5215 38.6152 45.5215C39.7461 45.5215 39.2012 45.3223 40.4199 45.2168C40.3613 47.7715 37.4902 50.8242 36.2656 52.7227L36.8105 56.6367C36.957 57.4863 35.0527 58.3945 34.3965 59.3437L34.707 60.8437L33.8281 61.2012C33.7402 62.6953 32.2285 64.4531 30.5645 64.4531H28.7598C28.7598 62.3437 27.2598 59.332 27.2598 57.8379C27.2598 56.5723 27.8457 56.4023 27.8457 54.832C27.8457 53.3848 26.3457 51.3164 26.3457 50.9297V48.498H25.1738C24.9922 47.8301 25.1035 47.5957 24.2715 47.5957H23.9727C22.6602 47.5957 22.8828 48.1816 21.5645 48.1816H20.3457C19.2617 48.1816 17.3398 44.7012 17.3398 44.2734V40.6875C17.3398 39.1289 18.7637 37.4355 19.748 36.7793V35.2734L21.0957 33.9023L21.8516 33.7734C23.4629 33.7734 23.2695 32.8711 24.2539 32.8711H26.9551V34.9746L29.9258 36.2461L30.207 34.9629C31.5547 35.2793 31.9062 35.877 33.5645 35.877H34.1504C35.2871 35.877 35.3223 34.3652 35.3223 33.1758L32.9141 33.4102L32.1113 31.5469L32.4277 31.3594C35.2915 29.582 37.7684 27.2466 39.7109 24.4922C40.6166 23.1876 41.4011 21.8029 42.0547 20.3555H42.084ZM31.0566 31.9746C31.1518 32.1542 31.1887 32.359 31.1621 32.5605C31.1621 32.9648 30.8281 33.0117 30.5762 33.1465L30.166 32.1035C30.4663 32.0892 30.7646 32.046 31.0566 31.9746ZM28.7129 32.0273C28.5488 32.8242 28.3203 33.627 27.541 32.5723L28.5254 32.0977L28.3848 31.9512L28.6953 32.0273H28.7129ZM25.0859 29.9238L24.623 30.1055L23.1758 31.4941C23.0234 32.6133 22.7187 33.1758 21.5527 33.1758C20.7734 33.1758 21.2422 32.9707 20.0469 32.8711V29.8828H22.7539L21.875 27.8848L21.5527 28.084V27.498L22.0215 27.2812C22.4375 27.6973 22.8652 28.1074 23.3105 28.5059C23.8965 29.0156 24.4824 29.5078 25.0684 29.9707L25.0859 29.9238Z" fill="white"/>
<path fill-rule="evenodd" clip-rule="evenodd" d="M58.4505 47.332C58.3835 47.3789 58.3037 47.4041 58.222 47.4041C58.1402 47.4041 58.0604 47.3789 57.9935 47.332C56.4928 46.3852 55.1585 45.1974 54.0442 43.8164C52.6832 42.1645 51.7674 40.1918 51.3841 38.0859C51.0294 36.2403 51.3696 34.3287 52.3392 32.7188C52.7321 32.0936 53.2296 31.5406 53.8099 31.084C55.0762 30.0291 56.6677 29.4435 58.3157 29.4258C59.407 29.4568 60.4734 29.7591 61.4186 30.3053C62.3638 30.8516 63.1581 31.6246 63.7298 32.5547C64.7651 34.4301 65.0559 36.6268 64.5443 38.707C64.159 40.4799 63.421 42.1572 62.3741 43.6389C61.3272 45.1207 59.9928 46.3767 58.4505 47.332ZM59.8812 33.4644C59.3273 33.0955 58.6765 32.8992 58.011 32.9004C57.1201 32.9019 56.2661 33.257 55.6366 33.8875C55.0072 34.5181 54.6536 35.3727 54.6536 36.2637C54.6536 36.9291 54.851 37.5796 55.2208 38.1328C55.5907 38.686 56.1163 39.1171 56.7312 39.3715C57.3461 39.6259 58.0226 39.6921 58.6752 39.5619C59.3278 39.4316 59.927 39.1107 60.3972 38.6398C60.8673 38.1688 61.1872 37.569 61.3163 36.9162C61.4454 36.2634 61.3779 35.587 61.1225 34.9725C60.867 34.3581 60.435 33.8332 59.8812 33.4644Z" fill="#FF3333"/>
<path fill-rule="evenodd" clip-rule="evenodd" d="M30.1673 27.873C30.0623 27.9459 29.9376 27.9849 29.8099 27.9849C29.6821 27.9849 29.5574 27.9459 29.4524 27.873C27.1134 26.3966 25.0345 24.5434 23.3001 22.3887C21.1939 19.8083 19.7821 16.7324 19.1985 13.4531C18.6411 10.5935 19.1586 7.62872 20.6517 5.12695C21.2665 4.15618 22.0411 3.2964 22.9427 2.58398C24.9114 0.941383 27.3867 0.028658 29.9505 0C32.4294 0.0367197 34.8036 1.00524 36.6009 2.71289C37.2873 3.34577 37.8792 4.0739 38.3587 4.875C39.9935 7.55859 40.3392 10.9805 39.6243 14.4492C39.0255 17.2054 37.88 19.8134 36.2557 22.1191C34.6313 24.4249 32.561 26.3814 30.1673 27.873ZM32.3968 6.29344C31.5354 5.71894 30.523 5.4129 29.4876 5.41406C28.1014 5.41406 26.772 5.96472 25.7919 6.94489C24.8117 7.92506 24.261 9.25445 24.261 10.6406C24.2599 11.676 24.5659 12.6884 25.1404 13.5498C25.7149 14.4112 26.5321 15.0827 27.4884 15.4795C28.4447 15.8762 29.4973 15.9804 30.5128 15.7786C31.5284 15.5769 32.4612 15.0785 33.1933 14.3464C33.9255 13.6142 34.4239 12.6814 34.6256 11.6658C34.8273 10.6503 34.7232 9.59775 34.3265 8.64142C33.9297 7.68508 33.2582 6.86794 32.3968 6.29344Z" fill="#8F00FF"/>
<path fill-rule="evenodd" clip-rule="evenodd" d="M8.07745 58.998C8.00302 59.051 7.91393 59.0795 7.82257 59.0795C7.7312 59.0795 7.64211 59.051 7.56768 58.998C5.88096 57.9456 4.38018 56.621 3.12628 55.0781C1.59873 53.2185 0.570281 51.0003 0.137997 48.6328C-0.260066 46.5577 0.121752 44.4087 1.21026 42.5977C1.65766 41.9006 2.21577 41.2811 2.86261 40.7637C4.28634 39.5801 6.07381 38.9222 7.92511 38.9004C9.71546 38.9269 11.4304 39.6255 12.7298 40.8574C13.2283 41.3166 13.6602 41.8432 14.013 42.4219C15.1749 44.5281 15.4992 46.9951 14.9212 49.3301C14.4898 51.3223 13.6615 53.2072 12.4856 54.8723C11.3098 56.5374 9.81059 57.9485 8.07745 59.0215V58.998ZM9.71683 43.4094C9.09629 42.9947 8.36673 42.7734 7.62042 42.7734C6.62012 42.775 5.66123 43.173 4.95391 43.8804C4.24659 44.5877 3.84853 45.5466 3.84698 46.5469C3.84698 47.2932 4.06829 48.0228 4.48292 48.6433C4.89755 49.2638 5.48688 49.7475 6.17639 50.0331C6.86589 50.3187 7.62461 50.3934 8.35658 50.2478C9.08856 50.1022 9.76092 49.7428 10.2886 49.2151C10.8164 48.6874 11.1758 48.015 11.3214 47.283C11.467 46.5511 11.3922 45.7923 11.1066 45.1028C10.821 44.4133 10.3374 43.824 9.71683 43.4094Z" fill="#FFD600"/>
</g>
<defs>
<clipPath id="clip0_649_11365">
<rect width="64.7637" height="72" fill="white"/>
</clipPath>
</defs>
</svg>
