<svg width="127" height="49" viewBox="0 0 127 49" fill="none" xmlns="http://www.w3.org/2000/svg">
<path d="M17.5196 13.278H13.2021V35.1501H17.5196V20.1524L30.6425 35.1501H35.0167V17.8232H42.9132C48.2532 28.5029 35.9256 50.0021 17.5196 42.8193C5.87354 38.2746 0.31898 24.5835 7.63463 13.278C14.3247 2.93921 28.6541 1.6326 36.6073 9.01734H42.7427C32.4035 -3.48035 12.3498 -3.82114 2.57873 13.278C-7.04262 34.9769 12.4704 49.0985 24.7912 48.443C41.6964 47.5435 53.8207 30.0368 45.8106 13.278H30.6425V28.5029L17.5196 13.278Z" fill="white"/>
<mask id="mask0_238_4297" style="mask-type:alpha" maskUnits="userSpaceOnUse" x="0" y="0" width="49" height="49">
<path d="M17.5196 13.278H13.2021V35.1501H17.5196V20.1524L30.6425 35.1501H35.0167V17.8232H42.9132C48.2532 28.5029 35.9256 50.0021 17.5196 42.8193C5.87354 38.2746 0.31898 24.5835 7.63463 13.278C14.3247 2.93921 28.6541 1.6326 36.6073 9.01734H42.7427C32.4035 -3.48035 12.3498 -3.82114 2.57873 13.278C-7.04262 34.9769 12.4704 49.0985 24.7912 48.443C41.6964 47.5435 53.8207 30.0368 45.8106 13.278H30.6425V28.5029L17.5196 13.278Z" fill="white"/>
<path d="M17.5196 13.278H13.2021V35.1501H17.5196V20.1524L30.6425 35.1501H35.0167V17.8232H42.9132C48.2532 28.5029 35.9256 50.0021 17.5196 42.8193C5.87354 38.2746 0.31898 24.5835 7.63463 13.278C14.3247 2.93921 28.6541 1.6326 36.6073 9.01734H42.7427C32.4035 -3.48035 12.3498 -3.82114 2.57873 13.278C-7.04262 34.9769 12.4704 49.0985 24.7912 48.443C41.6964 47.5435 53.8207 30.0368 45.8106 13.278H30.6425V28.5029L17.5196 13.278Z" fill="url(#paint0_linear_238_4297)"/>
</mask>
<g mask="url(#mask0_238_4297)">
<line x1="1.11842" y1="-1.11842" x2="57.8611" y2="-1.11842" transform="matrix(0.365979 -0.930623 0.962876 0.269944 -5.40234 47.4541)" stroke="white" stroke-width="2.23684" stroke-linecap="round" stroke-dasharray="0.19 0.19"/>
<line x1="1.11842" y1="-1.11842" x2="57.8611" y2="-1.11842" transform="matrix(0.365979 -0.930623 0.962876 0.269944 -2.96289 47.7744)" stroke="white" stroke-width="2.23684" stroke-linecap="round" stroke-dasharray="0.19 0.19"/>
<line x1="1.11842" y1="-1.11842" x2="57.8611" y2="-1.11842" transform="matrix(0.365979 -0.930623 0.962876 0.269944 -0.523438 48.0947)" stroke="white" stroke-width="2.23684" stroke-linecap="round" stroke-dasharray="0.19 0.19"/>
<line x1="1.11842" y1="-1.11842" x2="57.8611" y2="-1.11842" transform="matrix(0.365979 -0.930623 0.962876 0.269944 1.91797 48.4141)" stroke="white" stroke-width="2.23684" stroke-linecap="round" stroke-dasharray="0.19 0.19"/>
<line x1="1.11842" y1="-1.11842" x2="57.8611" y2="-1.11842" transform="matrix(0.365979 -0.930623 0.962876 0.269944 4.35742 48.7334)" stroke="white" stroke-width="2.23684" stroke-linecap="round" stroke-dasharray="0.19 0.19"/>
<line x1="1.11842" y1="-1.11842" x2="57.8611" y2="-1.11842" transform="matrix(0.365979 -0.930623 0.962876 0.269944 6.79883 49.0537)" stroke="white" stroke-width="2.23684" stroke-linecap="round" stroke-dasharray="0.19 0.19"/>
<line x1="1.11842" y1="-1.11842" x2="57.8611" y2="-1.11842" transform="matrix(0.365979 -0.930623 0.962876 0.269944 9.23828 49.374)" stroke="white" stroke-width="2.23684" stroke-linecap="round" stroke-dasharray="0.19 0.19"/>
<line x1="1.11842" y1="-1.11842" x2="57.8611" y2="-1.11842" transform="matrix(0.365979 -0.930623 0.962876 0.269944 11.6777 49.6934)" stroke="white" stroke-width="2.23684" stroke-linecap="round" stroke-dasharray="0.19 0.19"/>
<line x1="1.11842" y1="-1.11842" x2="57.8611" y2="-1.11842" transform="matrix(0.365979 -0.930623 0.962876 0.269944 14.1191 50.0127)" stroke="white" stroke-width="2.23684" stroke-linecap="round" stroke-dasharray="0.19 0.19"/>
<line x1="1.11842" y1="-1.11842" x2="57.8611" y2="-1.11842" transform="matrix(0.365979 -0.930623 0.962876 0.269944 16.5586 50.333)" stroke="white" stroke-width="2.23684" stroke-linecap="round" stroke-dasharray="0.19 0.19"/>
<line x1="1.11842" y1="-1.11842" x2="57.8611" y2="-1.11842" transform="matrix(0.365979 -0.930623 0.962876 0.269944 19 50.6533)" stroke="white" stroke-width="2.23684" stroke-linecap="round" stroke-dasharray="0.19 0.19"/>
<line x1="1.11842" y1="-1.11842" x2="57.8611" y2="-1.11842" transform="matrix(0.365979 -0.930623 0.962876 0.269944 21.4395 50.9727)" stroke="white" stroke-width="2.23684" stroke-linecap="round" stroke-dasharray="0.19 0.19"/>
<line x1="1.11842" y1="-1.11842" x2="57.8611" y2="-1.11842" transform="matrix(0.365979 -0.930623 0.962876 0.269944 23.8789 51.292)" stroke="white" stroke-width="2.23684" stroke-linecap="round" stroke-dasharray="0.19 0.19"/>
<line x1="1.11842" y1="-1.11842" x2="57.8611" y2="-1.11842" transform="matrix(0.365979 -0.930623 0.962876 0.269944 26.3203 51.6123)" stroke="white" stroke-width="2.23684" stroke-linecap="round" stroke-dasharray="0.19 0.19"/>
<line x1="1.11842" y1="-1.11842" x2="57.8611" y2="-1.11842" transform="matrix(0.365979 -0.930623 0.962876 0.269944 28.7598 51.9326)" stroke="white" stroke-width="2.23684" stroke-linecap="round" stroke-dasharray="0.19 0.19"/>
<line x1="1.11842" y1="-1.11842" x2="57.8611" y2="-1.11842" transform="matrix(0.365979 -0.930623 0.962876 0.269944 31.1992 52.252)" stroke="white" stroke-width="2.23684" stroke-linecap="round" stroke-dasharray="0.19 0.19"/>
<line x1="1.11842" y1="-1.11842" x2="57.8611" y2="-1.11842" transform="matrix(0.365979 -0.930623 0.962876 0.269944 33.6406 52.5713)" stroke="white" stroke-width="2.23684" stroke-linecap="round" stroke-dasharray="0.19 0.19"/>
<line x1="1.11842" y1="-1.11842" x2="57.8611" y2="-1.11842" transform="matrix(0.365979 -0.930623 0.962876 0.269944 36.0801 52.8916)" stroke="white" stroke-width="2.23684" stroke-linecap="round" stroke-dasharray="0.19 0.19"/>
<line x1="1.11842" y1="-1.11842" x2="57.8611" y2="-1.11842" transform="matrix(0.365979 -0.930623 0.962876 0.269944 38.5215 53.2109)" stroke="white" stroke-width="2.23684" stroke-linecap="round" stroke-dasharray="0.19 0.19"/>
<line x1="1.11842" y1="-1.11842" x2="57.8611" y2="-1.11842" transform="matrix(0.365979 -0.930623 0.962876 0.269944 -7.84375 47.1348)" stroke="white" stroke-width="2.23684" stroke-linecap="round" stroke-dasharray="0.19 0.19"/>
<line x1="1.11842" y1="-1.11842" x2="57.8611" y2="-1.11842" transform="matrix(0.365979 -0.930623 0.962876 0.269944 -10.2832 46.8154)" stroke="white" stroke-width="2.23684" stroke-linecap="round" stroke-dasharray="0.19 0.19"/>
<line x1="1.11842" y1="-1.11842" x2="57.8611" y2="-1.11842" transform="matrix(0.365979 -0.930623 0.962876 0.269944 -12.7246 46.4951)" stroke="white" stroke-width="2.23684" stroke-linecap="round" stroke-dasharray="0.19 0.19"/>
<line x1="1.11842" y1="-1.11842" x2="57.8611" y2="-1.11842" transform="matrix(0.365979 -0.930623 0.962876 0.269944 -15.1641 46.1758)" stroke="white" stroke-width="2.23684" stroke-linecap="round" stroke-dasharray="0.19 0.19"/>
<line x1="1.11842" y1="-1.11842" x2="57.8611" y2="-1.11842" transform="matrix(0.365979 -0.930623 0.962876 0.269944 -17.6055 45.8555)" stroke="white" stroke-width="2.23684" stroke-linecap="round" stroke-dasharray="0.19 0.19"/>
</g>
<path d="M55.0753 23V6.29826H57.6282L68.1026 19.1586H66.8381V6.29826H69.9159V23H67.363L56.8886 10.1397H58.1531V23H55.0753ZM76.3001 13.2414H84.6032V15.7944H76.3001V13.2414ZM76.5387 20.3993H85.9632V23H73.4369V6.29826H85.6292V8.89896H76.5387V20.3993ZM92.1704 23L86.635 6.29826H89.8561L94.795 21.4014H93.1964L98.3262 6.29826H101.189L106.176 21.4014H104.625L109.683 6.29826H112.642L107.107 23H103.814L99.2568 9.37615H100.116L95.4869 23H92.1704ZM119.392 23.2386C118.088 23.2386 116.839 23.0557 115.646 22.6898C114.453 22.3081 113.507 21.8229 112.807 21.2344L113.88 18.8246C114.549 19.3495 115.376 19.7869 116.362 20.1368C117.348 20.4868 118.358 20.6618 119.392 20.6618C120.267 20.6618 120.975 20.5663 121.516 20.3754C122.056 20.1846 122.454 19.9301 122.709 19.6119C122.963 19.2779 123.09 18.9041 123.09 18.4905C123.09 17.9815 122.907 17.5759 122.542 17.2737C122.176 16.9556 121.698 16.709 121.11 16.534C120.537 16.3432 119.893 16.1682 119.177 16.0091C118.477 15.8501 117.77 15.6671 117.054 15.4604C116.354 15.2377 115.71 14.9593 115.121 14.6253C114.549 14.2753 114.079 13.814 113.713 13.2414C113.348 12.6688 113.165 11.9371 113.165 11.0463C113.165 10.1397 113.403 9.31253 113.88 8.56493C114.374 7.80142 115.113 7.19697 116.099 6.75159C117.102 6.29031 118.366 6.05967 119.893 6.05967C120.895 6.05967 121.889 6.18692 122.876 6.44142C123.862 6.69592 124.721 7.06177 125.452 7.53896L124.474 9.94878C123.727 9.5034 122.955 9.17732 122.16 8.97054C121.364 8.74785 120.601 8.6365 119.869 8.6365C119.01 8.6365 118.31 8.7399 117.77 8.94668C117.245 9.15346 116.855 9.42387 116.6 9.75791C116.362 10.0919 116.243 10.4737 116.243 10.9032C116.243 11.4122 116.418 11.8257 116.767 12.1439C117.133 12.4461 117.603 12.6847 118.175 12.8597C118.764 13.0346 119.416 13.2096 120.132 13.3846C120.847 13.5436 121.555 13.7266 122.255 13.9333C122.971 14.1401 123.615 14.4105 124.188 14.7446C124.776 15.0786 125.246 15.5319 125.596 16.1046C125.961 16.6772 126.144 17.4009 126.144 18.2758C126.144 19.1666 125.898 19.9937 125.405 20.7572C124.927 21.5048 124.188 22.1092 123.186 22.5705C122.184 23.0159 120.919 23.2386 119.392 23.2386Z" fill="white"/>
<path d="M63.156 45.7933C61.8517 45.7933 60.6508 45.5865 59.5532 45.1729C58.4716 44.7435 57.5252 44.147 56.7139 43.3835C55.9027 42.604 55.2744 41.6894 54.829 40.6396C54.3836 39.5898 54.1609 38.4445 54.1609 37.2038C54.1609 35.9631 54.3836 34.8179 54.829 33.768C55.2744 32.7182 55.9027 31.8115 56.7139 31.048C57.5411 30.2686 58.5034 29.6721 59.6009 29.2586C60.6985 28.8291 61.8994 28.6144 63.2037 28.6144C64.6194 28.6144 65.8919 28.845 67.0213 29.3063C68.1665 29.7676 69.1289 30.4436 69.9083 31.3344L67.9518 33.2431C67.2996 32.591 66.5918 32.1138 65.8283 31.8115C65.0807 31.4934 64.2536 31.3344 63.3469 31.3344C62.472 31.3344 61.6608 31.4775 60.9132 31.7638C60.1656 32.0501 59.5214 32.4558 58.9806 32.9807C58.4398 33.5056 58.0183 34.1259 57.716 34.8417C57.4297 35.5575 57.2866 36.3449 57.2866 37.2038C57.2866 38.0469 57.4297 38.8263 57.716 39.5421C58.0183 40.2579 58.4398 40.8862 58.9806 41.427C59.5214 41.9519 60.1577 42.3575 60.8894 42.6438C61.6211 42.9301 62.4323 43.0733 63.323 43.0733C64.1502 43.0733 64.9455 42.946 65.709 42.6915C66.4884 42.4211 67.2281 41.9757 67.928 41.3554L69.6936 43.6698C68.8187 44.3697 67.8007 44.9025 66.6395 45.2684C65.4943 45.6183 64.3331 45.7933 63.156 45.7933ZM66.7588 43.2642V37.0129H69.6936V43.6698L66.7588 43.2642ZM86.1916 35.7961H94.4947V38.3491H86.1916V35.7961ZM86.4302 42.954H95.8547V45.5547H83.3284V28.8529H95.5207V31.4536H86.4302V42.954ZM116.682 45.7933C115.378 45.7933 114.177 45.5785 113.079 45.1491C111.982 44.7196 111.028 44.1231 110.216 43.3596C109.405 42.5802 108.777 41.6735 108.331 40.6396C107.886 39.5898 107.663 38.4445 107.663 37.2038C107.663 35.9631 107.886 34.8258 108.331 33.7919C108.777 32.7421 109.405 31.8354 110.216 31.0719C111.028 30.2925 111.982 29.688 113.079 29.2586C114.177 28.8291 115.37 28.6144 116.658 28.6144C117.963 28.6144 119.156 28.8291 120.237 29.2586C121.335 29.688 122.289 30.2925 123.101 31.0719C123.912 31.8354 124.54 32.7421 124.985 33.7919C125.431 34.8258 125.654 35.9631 125.654 37.2038C125.654 38.4445 125.431 39.5898 124.985 40.6396C124.54 41.6894 123.912 42.5961 123.101 43.3596C122.289 44.1231 121.335 44.7196 120.237 45.1491C119.156 45.5785 117.971 45.7933 116.682 45.7933ZM116.658 43.0733C117.501 43.0733 118.281 42.9301 118.997 42.6438C119.712 42.3575 120.333 41.9519 120.858 41.427C121.383 40.8862 121.788 40.2658 122.075 39.5659C122.377 38.8501 122.528 38.0628 122.528 37.2038C122.528 36.3449 122.377 35.5655 122.075 34.8656C121.788 34.1498 121.383 33.5294 120.858 33.0045C120.333 32.4637 119.712 32.0501 118.997 31.7638C118.281 31.4775 117.501 31.3344 116.658 31.3344C115.815 31.3344 115.036 31.4775 114.32 31.7638C113.62 32.0501 113 32.4637 112.459 33.0045C111.934 33.5294 111.521 34.1498 111.218 34.8656C110.932 35.5655 110.789 36.3449 110.789 37.2038C110.789 38.0469 110.932 38.8263 111.218 39.5421C111.521 40.2579 111.934 40.8862 112.459 41.427C112.984 41.9519 113.604 42.3575 114.32 42.6438C115.036 42.9301 115.815 43.0733 116.658 43.0733Z" fill="white"/>
<defs>
<linearGradient id="paint0_linear_238_4297" x1="29.8245" y1="27.4945" x2="36.6282" y2="43.898" gradientUnits="userSpaceOnUse">
<stop stop-color="white"/>
<stop offset="1" stop-color="#989696"/>
</linearGradient>
</defs>
</svg>
