<svg width="32" height="32" viewBox="0 0 32 32" fill="none" xmlns="http://www.w3.org/2000/svg">
<g clip-path="url(#clip0_3303_2087)">
<path d="M27.7078 26.2938L21.7388 20.3248C23.3654 18.3354 24.1651 15.7969 23.9726 13.2343C23.7801 10.6718 22.61 8.28129 20.7043 6.55728C18.7987 4.83327 16.3034 3.90765 13.7344 3.97188C11.1655 4.03611 8.71946 5.08528 6.90237 6.90237C5.08528 8.71946 4.03611 11.1655 3.97188 13.7344C3.90765 16.3034 4.83327 18.7987 6.55728 20.7043C8.28129 22.61 10.6718 23.7801 13.2343 23.9726C15.7969 24.1651 18.3354 23.3654 20.3248 21.7388L26.2938 27.7078C26.4824 27.8899 26.735 27.9907 26.9972 27.9884C27.2594 27.9862 27.5102 27.881 27.6956 27.6956C27.881 27.5102 27.9862 27.2594 27.9884 26.9972C27.9907 26.735 27.8899 26.4824 27.7078 26.2938ZM14.0008 22.0008C12.4185 22.0008 10.8718 21.5316 9.5562 20.6525C8.2406 19.7735 7.21522 18.524 6.60972 17.0622C6.00422 15.6004 5.84579 13.9919 6.15448 12.44C6.46316 10.8882 7.22508 9.46272 8.3439 8.3439C9.46272 7.22508 10.8882 6.46316 12.44 6.15448C13.9919 5.84579 15.6004 6.00422 17.0622 6.60972C18.524 7.21522 19.7735 8.2406 20.6525 9.5562C21.5316 10.8718 22.0008 12.4185 22.0008 14.0008C21.9984 16.1218 21.1548 18.1552 19.655 19.655C18.1552 21.1548 16.1218 21.9984 14.0008 22.0008Z" fill="white"/>
</g>
<defs>
<clipPath id="clip0_3303_2087">
<rect width="24" height="24" fill="white" transform="translate(4 4)"/>
</clipPath>
</defs>
</svg>
